<?xml version="1.0" encoding="UTF-8"?>
<svg id="Layer_2" data-name="Layer 2" xmlns="http://www.w3.org/2000/svg" viewBox="0 0 1080 1080">
  <defs>
    <style>
      .cls-1 {
        fill: #fff;
      }
    </style>
  </defs>
  <g>
    <path class="cls-1" d="M882.15,441.19c-2.25-3.72-5.47-5.65-9.66-5.83-4.34-.19-8.68-.37-13.01-.55.24,54.81.48,109.63.72,164.44,4.29,1,8.58,2.03,12.87,3.08,4.13,1.01,7.3.02,9.5-3.05,2.2-3.06,3.3-8.68,3.28-16.82-.1-41.15-.19-82.3-.29-123.46-.02-8.14-1.16-14.09-3.41-17.81Z"/>
    <path class="cls-1" d="M910.02,412.05c-8.09-13.09-20.93-20.03-37.13-20.08-13.05-.05-26.09-.1-39.14-.15l-10.1-.04.22,37.55c-1.85-8.56-4.86-15.6-9.05-21.27-8.01-10.86-20.46-16.38-37-16.42-12.66-.04-48.09-.12-48.09-.12l.29,34.07c-2.07-7.71-5.21-14.36-9.43-19.88-8.67-11.34-21.09-17.09-36.95-17.09-15.71,0-28.04,5.57-36.67,16.53-1.55,1.97-2.95,4.09-4.2,6.35.25-3.11.5-6.23.76-9.33l.87-10.79-42.27-.04s-1.93,26.09-2.55,34.53c-.74-8.54-2.99-34.53-2.99-34.53l-46.35-.02s-2.14,25.94-2.84,34.36c-.67-8.42-2.71-34.36-2.71-34.36h-44.84s.93,10.86.93,10.86c.11,1.34.23,2.69.35,4.03-.33-.47-.66-.94-1.01-1.39-8.25-10.73-20.27-16.18-35.75-16.18-15.61,0-27.84,5.49-36.35,16.33-3.12,3.97-5.63,8.55-7.56,13.69-1.76-4.95-4.07-9.36-6.96-13.27-8.11-10.95-20.48-16.74-35.81-16.75-15.74,0-28.03,5.79-36.53,17.22-7.86,10.56-11.93,25.21-12.08,43.55-.11,13.33,2.21,25.37,6.91,35.78,4.64,10.29,12.69,21.26,23.97,32.64,7.58,7.55,12.72,13.9,15.25,18.88,2.33,4.58,3.48,10.25,3.43,16.84-.05,6.83-1.37,9.3-1.77,9.88-.46.67-1.03,1.3-2.94,1.53-.29.04-.55.05-.78.05-.04,0-.07,0-.11,0-.36-.72-1.12-2.87-1.08-7.89l.21-24.98-11.14,1.17c-8.13.86-16.35,1.78-24.42,2.75l-5.14.62c-5.42-44.66-10.88-90.23-16.3-136.2l-1.04-8.85-52.4.16-1.12,8.69c-2.09,16.21-4.16,32.41-6.21,48.59-.79-16.26-4.36-28.93-10.84-38.56-8.18-12.12-20.88-18.53-36.72-18.53h-.19c-12.58.05-47.7.2-47.7.2v268.7l13.05-4.18c8.2-2.63,16.56-5.21,24.85-7.67l7.14-2.12.23-95.72c1.23-.21,2.45-.42,3.68-.63,15.47-2.64,27.35-10.53,35.31-23.46.62-1.01,1.21-2.06,1.78-3.13-4.2,33.94-8.31,67.66-12.28,100.94l-1.72,14.44,14.1-3.55c7.71-1.94,15.56-3.84,23.35-5.64l6.9-1.59.79-7.04c1.36-12.13,2.73-24.21,4.09-36.24,3.71-.66,7.42-1.3,11.14-1.93,1.05,10,4.29,40.8,4.29,40.8l10.73-2.12c8.43-1.66,16.97-3.25,25.4-4.73l9.36-1.64-1.16-9.44c-.22-1.81-.45-3.63-.67-5.44,7.02,8.61,16.8,12.97,29.09,12.97,2.58,0,5.31-.2,8.11-.59,15.42-2.14,27.46-9.05,35.78-20.54,2.99-4.13,5.43-8.78,7.32-13.93,1.78,4.42,4.03,8.33,6.78,11.68,7.65,9.37,18.6,14.13,32.55,14.13,1.38,0,2.81-.05,4.26-.14,15.67-1.01,27.91-6.98,36.36-17.74,8.08-10.27,12.2-24.42,12.24-42.04.03-13.25-2.31-25.05-6.96-35.08-4.59-9.88-12.51-20.3-24.21-31.83-5.08-5.01-9.09-9.5-12-13.43l8.76-.13c8.04-.12,16.2-.22,24.25-.3l4.49-.04c3.62,41.65,7.32,83.93,11.07,126.37l.81,9.22,9.25-.1c4.22-.04,8.51-.07,12.75-.07,7.09,0,14.29.06,21.41.19l9.29.17s2.18-23.81,2.85-31.06c.71,7.5,2.97,31.23,2.97,31.23l8.75.33c10.63.4,21.4.95,32.02,1.63l9.79.63.82-9.77c2.5-29.9,5-60.03,7.48-90.22l.28,45.93c.11,17.45,4.25,31.76,12.31,42.54,8.42,11.27,20.54,17.95,36,19.83,2.56.31,5.07.47,7.44.47,12.75,0,22.96-4.44,30.35-13.2,4.37-5.16,7.55-11.66,9.56-19.4l.3,35.98,8.27,1.39c8.43,1.42,16.99,2.95,25.42,4.55l11.97,2.27-.75-90.26c1.85.59,2.36,1.45,2.6,1.87.54.92,2.31,4.8,2.39,15.96l.3,39.11c.06,8.37.28,14.12.65,17.58.38,3.58,1.12,7.5,2.2,11.64l1.55,5.97,6.03,1.29c8.54,1.83,17.19,3.77,25.71,5.79l7.22,1.71,7.42,1.85c12.73,3.18,25.61,6.63,38.26,10.23,4.79,1.37,9.34,2.07,13.51,2.07,10.44,0,19.2-4.34,25.31-12.53,7.62-10.19,11.33-26.01,11.33-48.39v-123.92c0-21.78-3.71-38.82-11.03-50.64ZM244.44,479.28c-.11,18.13-3.36,32.21-9.74,42.58-6.38,10.36-15.88,16.69-28.48,18.84-4,.68-7.99,1.37-11.98,2.07-.08,32.22-.15,64.44-.23,96.66-8.37,2.48-16.73,5.06-25.06,7.73v-245.04c12.58-.06,25.16-.11,37.73-.16,12.73-.04,22.26,4.77,28.58,14.12,6.31,9.38,9.41,22.98,9.3,41.1-.04,7.36-.09,14.72-.13,22.08ZM304.45,612.23c-1.44-13.63-2.87-27.32-4.31-41.07,0,.2,0,.4,0,.6-9.69,1.57-19.36,3.24-29.01,5.01-1.65,14.48-3.29,29.03-4.93,43.65-7.86,1.82-15.71,3.71-23.54,5.68,9.19-76.96,18.5-151.65,27.87-224.36,11.57-.04,23.14-.07,34.71-.1,8.28,70.23,16.54,138.74,24.82,205.82-8.55,1.5-17.09,3.09-25.61,4.77ZM404.19,586.77c-6.71,9.27-16.41,14.74-29.06,16.5-12.49,1.74-21.88-1.1-28.19-8.93-6.31-7.81-9.39-20.08-9.25-36.66.03-3.9.07-7.8.1-11.7,8.09-.97,16.18-1.88,24.28-2.73-.04,4.59-.08,9.18-.11,13.77-.11,13.03,4.28,18.93,13.17,17.85,4.37-.52,7.7-2.46,9.99-5.81,2.29-3.35,3.46-8.49,3.51-15.44.06-8.26-1.44-15.39-4.51-21.44-3.07-6.04-8.78-13.15-17.11-21.44-10.5-10.59-17.79-20.53-21.91-29.67-4.12-9.12-6.13-19.7-6.02-31.59.14-16.18,3.51-28.8,10.11-37.66,6.6-8.87,16.11-13.2,28.54-13.19,12.27,0,21.52,4.29,27.75,12.7,6.23,8.43,9.3,20.44,9.19,36.17-.02,2.68-.04,5.37-.06,8.05-8.1.25-16.19.51-24.28.81.03-3.38.05-6.76.08-10.14.05-6.76-1-11.66-3.15-14.72-2.16-3.06-5.33-4.56-9.52-4.48-8.55.15-12.88,6.65-12.98,19.46-.06,7.26,1.48,13.98,4.62,20.11,3.14,6.13,8.87,13.43,17.21,21.79,10.66,10.67,17.99,20.35,21.99,29.18,3.99,8.84,5.95,19.32,5.87,31.54-.11,15.92-3.52,28.4-10.23,37.67ZM380.4,446.15l-.15,19.3c-.86-1.33-1.51-2.46-1.99-3.41-2.41-4.71-3.56-9.77-3.52-15.47.05-6.15,1.27-8.45,1.64-9.01.21-.32.34-.51,1.53-.53h.13c.58,0,.88.08.9.08,0,0,.05.04.12.15.06.08,1.38,2.05,1.33,8.89ZM422.35,527.97c-1.12-5.18-2.66-10.05-4.68-14.52-4.49-9.93-12.35-20.44-24.02-32.12-6.16-6.18-10.08-11.01-12.56-14.62l9.6-.35c8-.29,16.15-.56,24.22-.81l2.83-.09c1.18,5.48,2.92,10.66,5.21,15.49,4.65,9.8,12.74,20.46,24.11,31.73,4.99,4.89,8.94,9.28,11.79,13.12l-10.19.54c-8.15.44-16.4.94-24.54,1.49l-1.78.12ZM501.54,453.84c-8.11.08-16.21.17-24.31.3l.04-9.75c.03-6.5-1.05-11.22-3.21-14.19-2.17-2.96-5.35-4.43-9.55-4.39-8.56.07-12.87,6.22-12.93,18.42-.04,6.92,1.52,13.35,4.69,19.27,3.16,5.92,8.94,13.04,17.33,21.32,10.73,10.57,18.12,20.21,22.17,28.92,4.04,8.72,6.06,18.99,6.03,30.84-.04,15.44-3.4,27.36-10.1,35.88-6.7,8.53-16.42,13.11-29.14,13.94-12.57.82-22.03-2.51-28.41-10.33-6.38-7.8-9.5-19.55-9.4-35.2.02-3.68.05-7.36.07-11.05,8.13-.55,16.26-1.04,24.4-1.48-.02,4.37-.05,8.74-.07,13.12-.07,12.4,4.36,18.28,13.3,17.77,4.39-.25,7.73-1.91,10.02-5,2.28-3.09,3.44-7.96,3.47-14.65.03-7.94-1.51-14.88-4.61-20.82-3.11-5.94-8.86-13-17.25-21.21-10.57-10.49-17.92-20.12-22.07-28.88-4.15-8.75-6.19-18.77-6.12-30,.1-15.28,3.44-27.17,10.02-35.54,6.58-8.38,16.07-12.51,28.5-12.51,12.27,0,21.53,4.11,27.81,12.28,6.27,8.17,9.39,19.87,9.36,35.12,0,2.6-.01,5.21-.02,7.81ZM467.26,444.35l-.07,17.91c-.82-1.22-1.53-2.38-2.11-3.47-2.39-4.47-3.54-9.21-3.51-14.5.03-5.59,1.13-7.59,1.47-8.07.11-.16.28-.4,1.62-.41.76,0,1.14.12,1.2.16.01,0,.06.05.12.14.05.07,1.31,1.87,1.29,8.25ZM459.13,549.51l.13-23.15c1.31,1.81,2.38,3.48,3.19,5.03,2.33,4.46,3.5,9.9,3.48,16.15-.03,6.55-1.36,8.54-1.51,8.74-.24.32-.63.85-2.55.96-.16,0-.32.01-.48.01-.55,0-.86-.06-.99-.1-.24-.35-1.29-2.19-1.26-7.64ZM617.92,591.71c-10.75-.69-21.52-1.24-32.28-1.64-4.05-42.57-8.07-85.02-12.06-127.4-.16,0-.31,0-.47,0-3.81,42.3-7.65,84.53-11.52,126.74-11.48-.2-22.96-.24-34.44-.12-5.53-62.6-10.99-125.21-16.39-187.96,8.23,0,16.47,0,24.7,0,3.79,48.14,7.62,96.27,11.48,144.43.16,0,.31,0,.47,0,4.05-48.13,8.07-96.25,12.05-144.43,9.32,0,18.64,0,27.96.01,4.19,48.38,8.41,96.88,12.66,145.55.16,0,.31.01.47.02,3.66-48.37,7.28-96.88,10.87-145.56,7.38,0,14.76.01,22.14.02-5.16,63.84-10.37,127.25-15.65,190.35ZM714.12,591.45c-6.63,7.86-16.28,10.81-28.95,9.26-12.67-1.55-22.42-6.81-29.2-15.89-6.79-9.08-10.23-21.22-10.32-36.62-.21-33.73-.41-67.45-.62-101.18-.09-15.39,3.18-27.25,9.81-35.68,6.62-8.42,16.23-12.7,28.81-12.71,12.58,0,22.25,4.32,29,13.16,6.75,8.83,10.2,21.42,10.34,37.56.3,35.35.59,70.7.89,106.05.14,16.15-3.11,28.2-9.74,36.04ZM794.36,616.09c-.95-3.67-1.6-7.06-1.93-10.18-.34-3.12-.53-8.65-.59-16.6-.1-13.04-.2-26.08-.3-39.12-.08-9.78-1.33-16.77-3.76-20.93-2.44-4.16-6.59-6.57-12.49-7.24-2.95-.34-5.9-.67-8.84-.99.25,29.86.5,59.71.74,89.57-8.53-1.62-17.08-3.15-25.63-4.59l-1.73-204.47c12.66.03,25.32.06,37.98.1,13.2.03,22.86,4.07,28.98,12.35,6.11,8.27,9.23,21.09,9.34,38.24.03,4.49.06,8.99.09,13.48.15,22.82-5.32,36.68-16.42,41.39,0,.21,0,.41,0,.62,6.21,3.14,10.62,8.73,13.23,16.77,2.61,8.04,3.95,18.59,4.04,31.55.09,12.86.18,25.71.26,38.57.04,6.27.23,11.38.57,15.31.33,3.94,1.13,7.93,2.39,12-8.62-2.04-17.27-3.99-25.92-5.84ZM911.05,586.61c0,19.85-3.12,34.08-9.34,42.39-6.23,8.35-15.56,10.43-28.07,6.84-12.82-3.66-25.69-7.1-38.59-10.32-.45-74.57-.89-149.13-1.34-223.7,13.05.05,26.09.09,39.14.15,12.73.04,22.3,5.03,28.67,15.34,6.37,10.28,9.54,25.53,9.54,45.38v123.92Z"/>
    <path class="cls-1" d="M787.28,437.31c-2.12-3.53-5.44-5.35-9.94-5.49-3.88-.12-7.76-.24-11.65-.35.17,19.9.33,39.81.5,59.71,3.1.26,6.21.52,9.31.79,5.12.44,8.94-.92,11.48-4.16,2.53-3.23,3.77-8.93,3.7-17.08-.04-5.5-.09-11-.13-16.5-.06-7.74-1.15-13.39-3.27-16.92Z"/>
    <path class="cls-1" d="M206.58,435.4c-4.03.18-8.05.35-12.08.54-.06,24.31-.11,48.61-.17,72.92,4-.54,8.01-1.07,12.01-1.58,4.16-.54,7.29-2.6,9.38-6.15,2.1-3.56,3.16-9.27,3.2-17.17.04-9.11.08-18.23.12-27.34.03-7.9-.99-13.44-3.06-16.65-2.08-3.2-5.21-4.74-9.39-4.55Z"/>
    <path class="cls-1" d="M683.85,426.7c-8.86-.14-13.25,6.2-13.16,19,.25,35.46.51,70.93.76,106.39.09,12.81,4.6,19.61,13.5,20.55,8.91.95,13.3-5.02,13.2-18.06-.29-36.04-.57-72.08-.86-108.12-.1-13.03-4.59-19.63-13.45-19.77Z"/>
    <path class="cls-1" d="M286.31,439.09c-4,35.5-7.98,71.38-11.96,107.69,7.66-1.15,15.32-2.26,22.99-3.31-3.52-34.43-7.04-69.22-10.57-104.4-.16,0-.31.01-.47.02Z"/>
  </g>
  <g>
    <path class="cls-1" d="M336,649.4v3.36h-8.63v28.29h-4.13v-28.29h-8.67v-3.36h21.43Z"/>
    <path class="cls-1" d="M388.17,649.4v31.65h-4.13v-14.35h-16.12v14.35h-4.13v-31.65h4.13v13.9h16.12v-13.9h4.13Z"/>
    <path class="cls-1" d="M422.05,652.76v10.58h11.53v3.41h-11.53v10.9h12.9v3.41h-17.03v-31.7h17.03v3.41h-12.9Z"/>
    <path class="cls-1" d="M503.17,680.26c-1.65-.74-2.94-1.77-3.88-3.09-.94-1.32-1.42-2.84-1.45-4.56h4.41c.15,1.48.76,2.73,1.84,3.75,1.07,1.01,2.64,1.52,4.7,1.52s3.52-.49,4.65-1.48c1.13-.98,1.7-2.25,1.7-3.79,0-1.21-.33-2.19-1-2.95-.67-.76-1.5-1.33-2.5-1.73s-2.35-.82-4.04-1.27c-2.09-.54-3.76-1.09-5.02-1.63s-2.33-1.4-3.22-2.57c-.89-1.17-1.34-2.73-1.34-4.7,0-1.73.44-3.25,1.32-4.59.88-1.33,2.11-2.36,3.7-3.09,1.59-.73,3.41-1.09,5.47-1.09,2.97,0,5.4.74,7.29,2.23,1.89,1.48,2.96,3.45,3.2,5.9h-4.54c-.15-1.21-.79-2.28-1.91-3.2-1.12-.92-2.6-1.38-4.45-1.38-1.73,0-3.13.45-4.22,1.34-1.09.89-1.63,2.14-1.63,3.75,0,1.15.32,2.09.98,2.82s1.45,1.28,2.41,1.66c.95.38,2.29.81,4.02,1.29,2.09.58,3.77,1.14,5.04,1.7,1.27.56,2.36,1.42,3.27,2.59.91,1.17,1.36,2.75,1.36,4.75,0,1.54-.41,3-1.23,4.36s-2.03,2.47-3.63,3.32-3.5,1.27-5.68,1.27-3.96-.37-5.61-1.11Z"/>
    <path class="cls-1" d="M552.24,652.76v10.58h11.53v3.41h-11.53v10.9h12.9v3.41h-17.03v-31.7h17.03v3.41h-12.9Z"/>
    <path class="cls-1" d="M610.77,681.05l-7.54-12.94h-5v12.94h-4.13v-31.65h10.22c2.39,0,4.41.41,6.06,1.23s2.88,1.92,3.7,3.32,1.23,2.98,1.23,4.77c0,2.18-.63,4.1-1.88,5.77-1.26,1.67-3.14,2.77-5.65,3.31l7.95,13.26h-4.95ZM598.24,664.8h6.08c2.24,0,3.92-.55,5.04-1.66,1.12-1.1,1.68-2.58,1.68-4.43s-.55-3.33-1.66-4.36c-1.11-1.03-2.79-1.54-5.06-1.54h-6.08v11.99Z"/>
    <path class="cls-1" d="M670.57,649.4l-11.94,31.65h-4.77l-11.94-31.65h4.4l9.95,27.29,9.94-27.29h4.36Z"/>
    <path class="cls-1" d="M701.95,652.76v10.58h11.53v3.41h-11.53v10.9h12.9v3.41h-17.03v-31.7h17.03v3.41h-12.9Z"/>
    <path class="cls-1" d="M760.49,681.05l-7.54-12.94h-5v12.94h-4.13v-31.65h10.22c2.39,0,4.41.41,6.06,1.23s2.88,1.92,3.7,3.32,1.23,2.98,1.23,4.77c0,2.18-.63,4.1-1.88,5.77-1.26,1.67-3.14,2.77-5.65,3.31l7.95,13.26h-4.95ZM747.95,664.8h6.08c2.24,0,3.92-.55,5.04-1.66,1.12-1.1,1.68-2.58,1.68-4.43s-.55-3.33-1.66-4.36c-1.11-1.03-2.79-1.54-5.06-1.54h-6.08v11.99Z"/>
  </g>
</svg>